PathFileType	4	(X/Y/Z)	C:\Users\°ÂÌØÂü\Desktop\20210112\bx_n_5_901-Unnamed.trc
DataRate	CameraRate	NumFrames	NumMarkers	Units	OrigDataRate	OrigDataStartFrame	OrigNumFrames
50.00	50.00	       8	0	mm	50.00	177	       470
Frame#	Time	
		

177	3.520	-422.48715	103.55640	1716.90039	-726.62903	64.65938	219.11275	-541.59650	104.82016	1230.43018	-508.92905	279.32162	1436.06409	-712.00647	-5.98888	806.67847	-723.69183	-2.76244	1024.77258	-813.89178	278.13226	737.97485	-773.50507	71.16994	566.96356	-824.03314	257.62387	633.77307	-753.08960	212.09041	538.14197	-837.68585	265.54523	489.26688	-517.86041	-72.99070	143.49802	-549.41211	-22.20027	162.87744	-795.29333	32.85893	172.02255	-600.53619	28.46512	168.16138	-734.32404	241.72943	1045.68359	-720.99200	159.25333	222.43489	-799.38037	184.50114	180.61006	-773.54321	233.27550	202.10042	-595.01764	218.85846	174.25374	-882.62683	296.01382	144.75348	-558.48187	252.73814	164.73808	-659.82599	298.47025	156.71228	-623.68445	306.37204	158.18413	-528.20142	304.02493	146.64424	-511.97864	-69.05199	1416.24304				-816.17419	-51.89022	478.53488	-762.77216	-25.69255	204.10335	-675.92310	51.36071	162.84294	-875.95618	-78.67986	141.17555	-796.17462	-70.01463	871.21246	-799.09521	-63.14037	752.50757	-790.93829	-38.05967	612.21759	-790.68915	-36.39133	564.53723	-677.83685	175.91748	163.70695	-647.93726	-67.91261	161.19972	-778.69891	149.90768	571.56342	-605.01398	-72.87825	156.74057	-828.67023	284.81958	872.32294	-719.42816	227.32338	795.96405	-813.46667	254.07991	567.86450	-734.12378	13.57213	524.77002	
178	3.540	-435.54736	102.85181	1727.73267	-726.39917	64.71100	219.38974	-544.02887	105.03813	1238.91211	-515.69965	279.53671	1445.13647	-708.73663	-5.83315	807.04785	-720.60443	-1.82250	1026.71326	-810.40186	278.32895	738.39502	-770.91266	71.14809	566.98547	-821.01276	257.55704	634.21869	-750.52826	211.80667	538.00787	-835.98431	265.46600	490.04700	-517.80884	-72.94402	143.35826	-549.51440	-22.38385	162.75485	-794.98907	33.09597	171.87070	-600.69952	27.84465	168.66055	-730.92059	242.15405	1047.51099	-720.99200	159.25333	222.43489	-799.38635	183.86627	181.38251	-773.54321	233.27550	202.10042	-594.94458	218.90417	174.50262	-882.65930	296.16309	144.73979	-558.59930	252.78653	164.88048	-659.89148	298.39142	156.85410	-623.80377	306.46167	158.30344	-528.41510	304.10440	146.39038	-519.89990	-69.09238	1424.82666	-916.43732	91.48740	1081.65295	-815.20282	-51.26103	478.99442	-762.83234	-25.73364	204.51775	-675.77936	51.26871	162.93668	-875.72125	-78.53790	141.00470	-793.14355	-69.19198	871.76050	-795.92273	-62.99742	753.40906	-788.75031	-37.70582	612.37396	-788.82532	-36.15294	565.15271	-677.84930	175.84322	163.64874	-647.99286	-67.98661	161.27278	-775.66254	149.94283	571.63873	-605.13715	-73.06213	156.71091	-825.29425	285.38181	872.84424	-716.11670	227.85881	795.92169	-811.80884	253.82611	567.72119	-731.92743	14.09505	524.63348	
179	3.560	-448.63824	102.57610	1738.10034	-726.21436	64.84079	219.30222	-546.08167	105.22984	1247.19617	-522.88678	279.85660	1453.63281	-705.32086	-6.58273	807.07916	-717.33728	-2.03412	1029.32068	-806.59564	278.19037	739.06635	-768.38568	71.39106	567.40552	-818.54871	257.26556	634.42505	-748.46332	212.17049	538.33472	-833.92792	265.54868	490.27039	-517.80878	-72.87448	143.42780	-549.69128	-22.51124	162.61432	-795.34558	33.05587	171.86716	-600.79480	27.48208	168.72957	-727.19122	242.76378	1049.08398	-720.60950	159.37309	222.01532	-799.30591	183.52414	181.62851	-773.46851	233.18370	202.11629	-595.33020	219.19159	174.33275	-882.57916	296.07431	144.73070	-558.83704	252.91380	164.87970	-660.21484	298.44449	156.41980	-623.81201	306.38016	158.33435	-528.42944	304.21179	146.37996	-527.90784	-69.86069	1433.22778	-914.69165	93.03387	1080.82642	-814.01062	-51.01430	479.60202	-762.86993	-25.41130	204.72371	-675.77936	51.26871	162.93668	-875.78961	-78.57214	141.09050	-790.24744	-67.84885	871.72827	-792.54956	-62.97790	754.66516	-786.61481	-36.65433	612.55182	-787.13959	-35.47522	565.40454	-677.94568	175.64229	163.50751	-648.32458	-68.31927	161.05119	-773.41150	149.89839	571.97876	-605.38104	-73.33559	156.57739	-820.42181	285.40671	872.51184	-711.46368	228.23782	796.12280	-809.16754	254.52512	569.07190	-729.91400	14.02264	524.99554	
180	3.580	-461.50241	102.38182	1748.19934	-726.18848	64.77615	219.06323	-548.63519	104.92344	1255.00476	-530.21240	280.11978	1461.60522	-701.44275	-6.09378	807.45947	-714.06934	-1.51298	1031.06360	-803.16846	278.09848	739.28326	-765.67242	71.90504	568.01361	-815.62115	257.90448	635.47180	-746.54791	212.32541	538.43445	-832.12274	265.49591	490.75543	-517.80060	-72.76288	143.45758	-549.68292	-22.87420	162.82271	-795.34961	33.33186	172.00005	-601.14624	27.30676	168.98170	-723.03894	242.81749	1050.59326	-720.33710	159.20885	222.24522	-799.34869	183.60902	181.71861	-773.46851	233.18370	202.11629	-595.29553	219.27628	174.41733	-882.68164	296.17657	144.76575	-559.17572	253.01894	165.05315	-660.14398	298.42725	156.95143	-623.86768	306.42694	158.45749	-528.31000	304.15982	146.43759	-535.87372	-70.30902	1441.57178	-911.75262	93.88561	1080.26843	-812.48804	-50.03949	479.78058	-762.71350	-24.76834	204.53809	-675.77936	51.26871	162.93668	-875.80023	-78.62018	141.04199	-787.29047	-67.27827	872.10022	-790.09552	-61.94641	755.23419	-784.32056	-36.57419	613.23889	-784.99872	-35.32491	565.93146	-677.97260	175.70779	163.49287	-648.36139	-68.47990	160.91161	-770.94116	149.77615	572.61169	-605.35657	-73.51483	156.70697	-815.24255	286.03705	873.14233	-707.17297	228.88919	796.50659	-806.44653	254.64935	569.65161	-727.94611	13.62165	525.12305	
181	3.600	-474.28821	102.04472	1757.69971	-725.82965	64.86366	219.24828	-550.79712	104.54401	1262.94739	-537.27002	280.19662	1469.43542	-697.87384	-5.78484	807.86096	-710.43628	-0.97260	1033.07019	-798.89490	278.23563	739.85669	-762.52997	72.95414	568.03802	-812.01178	258.50046	636.15326	-743.75177	212.31812	538.44403	-829.65656	265.54419	491.36084	-518.18213	-72.81016	143.33507	-549.64868	-22.92529	162.80290	-795.21777	33.44933	172.09714	-601.08777	27.01984	168.99295	-718.93860	243.84631	1052.25977	-720.00317	159.29222	221.90901	-799.60419	183.27084	182.13632	-773.46851	233.18370	202.11629	-595.33252	219.20247	174.52144	-882.51978	296.06879	144.62822	-558.99365	252.92065	165.02188	-660.13617	298.35095	156.82831	-623.87585	306.45383	158.36293	-528.01184	303.88370	146.25197	-543.67249	-70.55333	1449.96716	-909.07843	95.37470	1079.97913	-810.65674	-49.55866	480.60077	-762.74713	-24.70594	204.57463	-675.77936	51.26871	162.93668	-875.80023	-78.62018	141.04199	-784.04376	-66.37668	872.79846	-787.30951	-61.20667	755.72510	-781.81665	-35.94875	613.98627	-782.49127	-34.35551	566.35645	-677.99286	175.71996	163.47206	-648.30145	-68.44813	160.98752	-768.26520	150.81467	572.77618	-605.41693	-73.34312	156.66527	-810.77325	286.89822	873.67450	-702.64063	229.16350	796.79309	-803.67548	255.43517	569.98248	-725.40497	13.96176	525.23083	
182	3.620	-486.85895	101.66190	1766.87683	-725.06561	65.17910	219.35365	-553.16266	104.62862	1270.79614	-544.54303	280.87149	1477.09082	-693.66040	-6.15691	807.91742	-706.64819	-0.15037	1035.03491	-794.64807	278.50476	740.35577	-759.62256	73.14484	568.72363	-808.73010	258.87473	636.51141	-741.20276	212.89352	538.46149	-827.37225	266.38641	492.28513	-517.84412	-73.15401	143.21890	-549.29480	-22.98625	162.95097	-795.10828	33.94410	172.50391	-601.12616	26.70591	169.16003	-714.75189	244.23709	1053.79565	-719.83923	159.36475	221.94635	-798.89697	183.48245	181.72656	-773.80591	233.29637	202.07800	-595.25940	219.22470	174.63437	-882.55164	296.16013	144.69978	-558.54779	252.81329	164.87357	-659.74835	298.28510	157.24582	-623.78729	306.43787	158.44833	-528.20691	303.87955	146.41327	-551.74695	-71.53909	1457.53516				-808.87457	-48.59483	481.41156	-762.75391	-24.38499	204.88258	-675.64014	51.38749	162.95818	-875.79388	-78.47688	141.16841	-779.32355	-66.31763	873.24847	-784.12079	-60.53435	756.06647	-778.94525	-35.33476	614.39209	-779.79083	-33.85647	566.93652	-677.70117	175.77428	163.05771	-648.41577	-68.42521	160.86082	-765.07111	151.23079	573.62573	-605.52576	-73.63175	156.87981	-805.91815	287.45532	874.08942	-697.89642	229.37370	796.94324	-801.05237	255.59460	570.23077	-723.03314	14.21174	525.03088	
183	3.640	-499.10019	101.70020	1775.18103	-724.29254	65.58784	219.38948	-555.92297	104.34425	1278.29895	-551.92334	281.01331	1483.98132	-689.36725	-6.29644	809.13654	-702.32526	0.59174	1036.79150	-790.25989	279.31375	741.28186	-756.36505	73.58771	568.78271	-805.34705	259.97766	637.13849	-738.41870	213.56352	538.49725	-824.84088	266.81091	492.57690	-517.94244	-72.86193	143.31651	-549.57703	-23.18623	162.93890	-795.01123	34.04905	172.52429	-601.11377	26.55572	169.38383	-710.28815	244.95952	1055.16980	-719.72748	159.22884	221.77258	-798.88806	183.22151	182.44370	-773.53986	233.45020	202.22400	-595.23865	219.28966	174.54330	-882.62134	296.14355	144.72720	-558.27692	252.79239	164.56758	-659.87555	298.39728	157.17783	-623.59753	306.32016	158.45746	-528.23480	303.96912	146.30733	-559.02264	-71.67806	1464.57983	-900.74286	97.61218	1077.59460	-806.86310	-48.17511	481.87607	-762.68292	-24.11388	205.16187	-675.77936	51.26871	162.93668	-875.80457	-78.52492	141.11989	-774.76782	-65.96841	874.85602	-780.91248	-59.69610	756.72687	-776.23328	-34.78579	614.74927	-777.29657	-33.62326	567.67090	-677.77393	175.57841	163.21867	-648.38092	-68.48543	160.84012	-762.80066	151.29594	573.90503	-605.31683	-73.69482	156.89009	-800.61133	288.39471	874.70837	-693.50983	229.89001	797.36249	-797.47601	256.62064	571.05267	-720.68579	14.93590	525.01581	
184	3.660	-511.00220	102.11037	1783.20630	-723.90039	65.74156	219.51427	-558.65692	104.42950	1285.30383	-559.18585	281.88113	1491.25562	-685.27539	-5.10976	809.03290	-698.16040	0.77947	1038.77563	-786.18768	279.46817	741.55737	-753.28387	74.07891	569.16339	-802.13245	259.97733	637.14899	-735.72516	214.08990	538.97296	-822.45154	267.69946	492.95178	-517.92603	-72.98940	143.44370	-549.48645	-23.57629	162.88004	-795.03821	34.28115	172.50525	-601.08380	26.54268	169.29028	-706.39441	246.23973	1056.86548	-719.59186	159.04842	221.87924	-798.99786	183.85518	182.08554	-773.20929	233.44453	202.27533	-595.23865	219.28966	174.54330	-882.49811	296.24332	144.68913	-558.29517	252.81940	164.70409	-659.87854	298.12521	156.95346	-623.66797	306.38217	158.48938	-528.25049	304.04272	146.31070	-566.99817	-72.10994	1471.51636	-898.08325	98.67341	1077.23486	-804.96344	-47.49366	482.67603	-762.58990	-23.97171	205.34166	-675.64014	51.38749	162.95818	-875.85522	-78.73365	141.22168	-770.86353	-64.28951	874.51599	-776.64758	-58.64863	756.97833	-773.45679	-34.17500	615.32477	-774.69635	-32.38371	567.40405	-677.67456	175.86511	163.05830	-648.42993	-68.46655	160.82307	-760.33209	152.37692	574.17365	-605.43262	-73.74326	156.91083	-795.59851	288.65137	874.96283	-688.85669	230.75096	797.55347	-794.54443	257.06976	571.11816	-718.25360	15.58839	524.86340	
